<?xml version="1.0" standalone="no"?>
<!DOCTYPE svg PUBLIC "-//W3C//DTD SVG 20010904//EN"
 "http://www.w3.org/TR/2001/REC-SVG-20010904/DTD/svg10.dtd">
<svg version="1.0" xmlns="http://www.w3.org/2000/svg"
 width="300.000000pt" height="300.000000pt" viewBox="0 0 300.000000 300.000000"
 preserveAspectRatio="xMidYMid meet">
<metadata>
Created by potrace 1.10, written by Peter Selinger 2001-2011
</metadata>
<g transform="translate(0.000000,300.000000) scale(0.100000,-0.100000)"
fill="#000000" stroke="none">
<path d="M1255 2984 c-205 -43 -350 -95 -490 -175 -359 -206 -609 -529 -715
-923 -36 -131 -51 -281 -29 -274 9 3 16 28 21 74 14 151 62 314 140 472 138
283 387 529 673 667 147 71 370 135 470 135 39 0 65 8 65 21 0 9 -96 11 -135
3z"/>
<path d="M1600 2983 c0 -15 25 -23 72 -23 62 0 262 -48 363 -86 121 -47 276
-134 380 -214 51 -39 210 -200 238 -240 17 -25 34 -47 38 -50 31 -23 180 -303
194 -365 4 -16 10 -39 15 -50 20 -50 54 -209 65 -307 3 -32 11 -60 16 -63 14
-10 11 104 -7 196 -62 328 -245 644 -496 856 -186 157 -372 255 -608 318 -104
28 -270 45 -270 28z"/>
<path d="M1329 2709 c-512 -54 -911 -375 -1074 -863 -71 -211 -94 -403 -76
-642 13 -179 32 -285 59 -346 17 -39 31 -50 141 -112 l122 -69 88 7 88 6 109
-107 c152 -150 279 -222 482 -274 125 -33 339 -33 465 0 212 55 368 148 514
306 l70 75 90 -6 90 -7 123 69 c141 79 147 87 174 234 107 581 -50 1107 -428
1437 -259 226 -643 334 -1037 292z m286 -19 c4 -6 16 -8 26 -5 25 8 296 -44
312 -59 7 -6 23 -12 36 -14 31 -3 191 -78 191 -89 0 -5 16 -15 35 -23 19 -7
32 -17 29 -22 -3 -4 4 -8 15 -8 12 0 21 -4 21 -10 0 -5 6 -10 13 -10 7 0 26
-16 41 -35 16 -19 32 -35 37 -35 5 0 26 -18 46 -41 21 -23 55 -58 76 -79 20
-21 37 -43 37 -48 0 -6 4 -12 8 -14 25 -10 125 -188 162 -288 7 -19 19 -50 27
-68 24 -55 61 -241 72 -362 13 -138 13 -224 1 -195 -4 12 -6 -15 -4 -65 3 -58
1 -79 -5 -65 -5 11 -10 94 -10 185 -1 91 -5 170 -9 177 -4 6 -7 -71 -8 -170
-1 -159 -18 -343 -40 -432 -4 -15 -1 -14 10 5 9 14 15 35 16 48 0 13 4 21 9
18 4 -3 8 9 8 27 -2 82 3 132 13 117 5 -8 10 -28 10 -45 0 -47 -38 -219 -50
-223 -5 -2 -10 -10 -10 -18 0 -9 -4 -13 -9 -10 -5 3 -11 -1 -15 -9 -3 -8 -12
-15 -21 -15 -8 0 -15 -4 -15 -8 0 -5 -16 -14 -35 -22 -19 -8 -35 -18 -35 -22
0 -5 -4 -7 -9 -4 -5 4 -11 2 -13 -3 -1 -5 -9 -11 -17 -13 -8 -2 -23 -11 -34
-21 -17 -17 -30 -18 -120 -12 l-102 6 -45 -51 c-25 -28 -54 -60 -65 -71 -67
-64 -110 -99 -121 -99 -6 0 -14 -7 -18 -15 -3 -8 -12 -15 -20 -15 -8 0 -21 -6
-29 -14 -22 -22 -126 -71 -197 -93 -120 -37 -166 -44 -306 -44 -147 1 -211 9
-310 41 -71 23 -205 85 -198 92 2 3 -9 11 -26 18 -16 7 -30 16 -30 21 0 5 -6
9 -14 9 -8 0 -27 14 -43 30 -15 17 -31 30 -35 30 -8 0 -98 90 -98 98 0 4 -13
19 -29 35 -20 19 -41 27 -68 28 -34 2 -35 2 -8 6 59 9 68 27 60 125 -7 90 -2
109 16 62 30 -80 172 -245 285 -331 42 -32 137 -82 197 -103 48 -17 54 -17 70
-3 9 9 17 26 17 38 0 15 19 34 68 67 128 87 147 88 247 22 85 -56 105 -73 105
-92 0 -9 7 -23 16 -33 15 -17 19 -17 80 5 179 65 357 221 456 401 l28 50 0
-86 c0 -99 9 -113 77 -122 39 -5 42 -3 55 27 7 17 13 58 13 91 2 179 7 239 16
220 6 -14 8 2 5 50 -3 39 -1 117 3 175 7 103 7 104 15 50 5 -34 1 -153 -9
-308 -9 -139 -14 -263 -11 -276 5 -19 11 -22 33 -18 16 2 37 13 49 23 11 11
23 17 26 14 3 -3 11 1 18 10 7 8 18 15 24 15 6 0 24 10 40 23 l29 23 1 252 c1
229 3 253 19 269 18 17 18 17 12 -7 -23 -94 -28 -411 -6 -433 8 -8 10 20 7
104 -4 130 7 295 29 418 16 92 13 119 -5 50 -18 -70 -31 -109 -37 -109 -7 0 7
93 17 105 4 6 8 17 8 25 1 8 5 30 8 48 8 41 -4 55 -109 129 -70 49 -81 53 -94
40 -15 -15 -30 -144 -34 -297 l-2 -75 -6 70 c-4 39 -4 120 0 180 3 61 2 117
-2 126 -5 9 -27 19 -51 22 -79 12 -77 20 -105 -442 -9 -161 -19 -287 -22 -280
-2 8 -30 51 -62 96 -72 102 -89 134 -89 171 0 40 112 212 138 212 23 0 42 19
42 43 0 33 -61 159 -112 234 -91 132 -244 258 -387 317 -69 30 -99 30 -112 4
-5 -10 -13 -26 -17 -35 -5 -10 -44 -42 -86 -70 -60 -42 -85 -53 -116 -53 -30
0 -56 12 -116 53 -43 28 -81 60 -86 70 -21 46 -26 52 -43 56 -58 11 -255 -105
-368 -216 -124 -122 -234 -322 -209 -378 7 -14 20 -25 31 -25 14 0 38 -27 77
-85 50 -74 56 -90 56 -132 -1 -42 -10 -60 -72 -150 -38 -56 -71 -112 -71 -125
-1 -13 -12 138 -25 335 -27 397 -29 410 -89 403 -40 -5 -62 -15 -68 -30 -3 -7
-2 -84 3 -172 4 -87 4 -179 0 -204 -6 -36 -8 -25 -10 60 -4 204 -14 295 -33
314 -16 17 -19 17 -52 -4 -19 -12 -35 -25 -35 -29 0 -4 -11 -13 -24 -19 -13
-6 -40 -25 -60 -43 -30 -26 -37 -38 -35 -63 2 -17 6 -35 10 -41 12 -17 21
-102 12 -108 -9 -6 -11 4 -15 65 -2 20 -6 34 -10 32 -3 -2 -9 2 -12 8 -4 7 -4
-3 -1 -22 26 -159 37 -279 37 -422 1 -92 5 -165 10 -162 4 3 8 22 8 42 0 20 5
44 10 52 8 11 10 0 8 -38 -1 -29 -4 -55 -8 -57 -3 -2 -7 -19 -8 -39 -2 -29 2
-38 25 -52 15 -10 55 -34 87 -56 97 -63 121 -53 129 52 3 44 2 67 -3 55 -11
-26 -12 94 -1 150 5 30 9 0 15 -115 4 -85 12 -163 17 -172 15 -27 2 -38 -43
-38 -37 0 -108 31 -116 52 -2 5 -8 6 -13 2 -5 -3 -9 -1 -9 4 0 4 -16 14 -35
22 -19 8 -35 17 -35 22 0 4 -9 8 -21 8 -11 0 -18 4 -15 9 3 5 -3 11 -13 14
-21 5 -56 97 -48 128 3 10 1 19 -3 19 -14 0 -28 149 -34 365 -2 82 -1 93 4 45
5 -51 7 -37 7 70 0 185 38 340 130 540 37 79 126 216 155 238 10 7 18 17 18
22 0 11 127 139 133 134 2 -3 12 7 21 21 9 14 20 23 25 21 4 -3 14 4 21 15 8
10 20 19 27 19 7 0 13 3 13 8 0 4 20 15 45 25 25 11 43 22 40 27 -6 10 131 72
215 98 90 27 233 55 304 58 32 2 61 6 64 9 10 10 191 5 197 -5z m-350 -591
c-16 -25 19 -66 103 -121 120 -79 146 -79 259 -3 86 57 119 94 109 120 -7 19
-10 20 74 -14 117 -48 180 -91 286 -196 89 -88 107 -112 152 -203 58 -116 63
-139 30 -144 -32 -4 -148 -176 -155 -227 -6 -45 12 -84 92 -196 57 -79 57 -80
52 -137 -8 -94 -108 -237 -237 -341 -89 -72 -320 -187 -295 -147 16 26 -18 66
-103 123 -120 78 -146 78 -262 0 -98 -65 -112 -79 -106 -111 4 -29 -7 -26
-129 32 -154 73 -274 183 -368 338 -30 51 -37 71 -37 114 0 49 5 60 65 146 36
51 71 109 77 130 14 49 -4 97 -78 201 -43 60 -60 77 -79 77 -14 0 -25 2 -25 4
0 2 13 35 29 73 86 208 253 373 468 463 76 32 87 35 78 19z m-644 -371 c6 -12
64 -964 60 -969 -3 -4 -24 -9 -46 -12 l-41 -7 -2 58 c-3 75 -51 859 -55 894
-3 24 1 28 27 31 17 2 37 5 44 5 6 1 13 1 13 0z m1824 -8 c18 0 20 -5 17 -37
-13 -148 -59 -930 -55 -936 5 -9 -79 2 -88 12 -6 6 49 935 57 960 3 8 12 11
27 7 12 -3 31 -6 42 -6z m-1971 -87 c4 -43 13 -188 21 -323 8 -135 17 -272 20
-305 11 -149 17 -265 13 -265 -3 0 -47 24 -99 54 -58 34 -92 60 -90 68 3 7 7
87 9 176 5 182 -10 357 -39 471 -10 41 -17 76 -16 78 14 13 163 123 168 123 4
0 10 -35 13 -77z m2152 15 c46 -34 84 -65 84 -68 0 -3 -7 -27 -15 -54 -38
-125 -62 -555 -36 -643 l9 -32 -95 -56 c-53 -30 -98 -53 -101 -51 -4 4 22 471
33 586 2 25 7 90 10 145 8 149 16 235 22 235 3 0 43 -28 89 -62z m-2087 -357
c-1 -43 1 -83 5 -89 4 -6 3 -53 -1 -104 l-8 -93 -7 105 c-6 98 -1 260 9 260 2
0 3 -35 2 -79z m-223 33 c-4 -14 -9 -24 -12 -21 -3 2 -2 17 2 31 3 15 9 25 11
22 3 -3 2 -17 -1 -32z m14 -132 c0 -31 -5 -64 -10 -72 -7 -10 -10 9 -10 63 0
50 4 76 10 72 6 -3 10 -32 10 -63z m-5 -111 c3 -5 1 -12 -5 -16 -5 -3 -10 1
-10 9 0 18 6 21 15 7z"/>
<path d="M1335 2600 c-38 -5 -101 -16 -140 -25 -38 -9 -86 -20 -105 -24 -40
-9 -105 -37 -205 -88 -91 -47 -107 -56 -123 -70 -7 -7 -17 -13 -22 -13 -10 0
-170 -157 -223 -220 -21 -25 -46 -60 -55 -77 -8 -18 -19 -33 -24 -33 -4 0 -8
-7 -8 -15 0 -8 -4 -15 -10 -15 -5 0 -10 -6 -10 -13 0 -7 -13 -37 -28 -67 -41
-78 -92 -215 -92 -245 0 -15 6 -25 14 -25 23 0 97 43 107 63 6 9 14 15 20 12
5 -4 9 -2 9 3 0 5 41 13 92 17 100 7 113 15 145 82 8 18 19 33 24 33 5 0 9 5
9 10 0 6 16 26 35 44 19 19 35 39 35 46 0 6 5 8 10 5 6 -3 10 1 10 9 0 9 5 16
11 16 6 0 23 12 39 28 41 40 70 63 70 55 0 -4 7 3 16 15 8 12 22 22 30 22 8 0
14 5 14 10 0 6 9 10 20 10 11 0 20 4 20 9 0 5 13 11 29 14 16 3 35 12 42 19
20 19 69 39 80 33 5 -4 9 -2 9 3 0 25 229 62 355 57 135 -6 355 -58 355 -85 0
-4 20 -14 44 -21 25 -7 42 -17 40 -21 -3 -5 -2 -7 3 -6 16 5 103 -45 96 -55
-3 -6 -1 -7 5 -3 6 3 18 -4 26 -16 9 -12 16 -19 16 -15 0 10 163 -156 183
-187 10 -14 17 -28 17 -31 0 -3 8 -13 18 -23 9 -10 22 -26 27 -35 8 -13 33
-18 104 -23 84 -6 96 -10 122 -35 15 -15 37 -30 48 -34 12 -3 21 -11 21 -16 0
-5 11 -9 25 -9 34 0 32 24 -11 135 -19 50 -38 99 -41 110 -4 11 -13 26 -20 33
-7 8 -11 18 -8 23 4 5 2 9 -4 9 -5 0 -13 10 -17 22 -4 13 -24 46 -45 75 -22
29 -39 54 -39 57 0 15 -226 246 -241 246 -4 0 -14 6 -21 13 -23 23 -259 137
-317 154 -184 51 -429 73 -586 53z m420 -35 c372 -66 669 -286 840 -625 50
-100 110 -264 92 -254 -6 5 -38 27 -71 51 -48 35 -66 43 -105 44 -111 2 -126
8 -172 79 -56 83 -186 215 -268 270 -91 61 -217 117 -329 147 -83 22 -118 26
-242 25 -124 0 -160 -4 -245 -26 -112 -29 -233 -83 -327 -147 -82 -55 -213
-187 -267 -269 -46 -71 -61 -77 -171 -79 -44 -1 -67 -13 -172 -90 -16 -12 -14
-2 13 75 165 470 522 758 1007 814 103 12 306 4 417 -15z"/>
<path d="M225 1503 c-10 -41 -4 -446 8 -460 5 -7 7 -22 4 -33 -3 -11 -1 -18 4
-14 5 3 9 -10 9 -28 0 -19 7 -43 16 -54 15 -19 15 -19 10 1 -28 113 -50 368
-43 503 4 61 5 112 3 112 -2 0 -7 -12 -11 -27z"/>
<path d="M2792 1340 c0 -19 2 -27 5 -17 2 9 2 25 0 35 -3 9 -5 1 -5 -18z"/>
<path d="M1070 1777 c-59 -21 -69 -28 -104 -80 -21 -32 -37 -60 -35 -62 2 -2
27 12 54 31 60 40 128 62 254 80 51 7 95 15 97 17 9 8 -113 37 -157 37 -24 0
-73 -11 -109 -23z"/>
<path d="M1710 1781 c-63 -20 -55 -25 53 -36 94 -9 194 -40 242 -73 66 -47 69
-48 55 -21 -44 83 -68 106 -135 127 -78 26 -141 27 -215 3z"/>
<path d="M1144 1651 c-41 -25 -77 -72 -65 -84 5 -5 17 -4 30 3 17 8 26 8 43
-5 38 -26 84 -19 110 15 12 17 27 30 34 30 31 0 21 22 -18 40 -54 25 -95 25
-134 1z m113 -26 c9 -6 -32 -45 -47 -45 -23 0 -70 20 -70 31 0 19 95 31 117
14z"/>
<path d="M1733 1657 c-18 -7 -38 -18 -45 -25 -10 -10 -9 -14 8 -18 12 -3 31
-19 43 -35 25 -33 72 -39 109 -14 17 12 26 13 42 5 33 -18 43 -2 19 32 -44 62
-105 81 -176 55z m96 -28 c38 -13 39 -22 6 -37 -35 -16 -55 -15 -77 5 -25 22
-23 31 10 36 15 2 27 5 28 6 1 0 15 -4 33 -10z"/>
<path d="M1344 1429 l-28 -41 23 -19 c20 -17 41 -19 158 -19 74 0 143 5 154
10 26 14 24 49 -5 84 -27 32 -50 27 -43 -10 l4 -24 -106 0 -107 0 1 27 c0 41
-19 38 -51 -8z m31 -29 c3 -5 1 -10 -4 -10 -6 0 -11 5 -11 10 0 6 2 10 4 10 3
0 8 -4 11 -10z m265 0 c0 -5 -5 -10 -11 -10 -5 0 -7 5 -4 10 3 6 8 10 11 10 2
0 4 -4 4 -10z"/>
<path d="M904 1271 c7 -11 140 -91 152 -91 5 0 -26 23 -69 50 -79 50 -93 57
-83 41z"/>
<path d="M2010 1228 c-41 -26 -70 -48 -64 -48 6 0 40 19 75 41 73 47 74 48 68
52 -2 2 -38 -18 -79 -45z"/>
<path d="M1085 1171 c-41 -18 -66 -46 -79 -89 -7 -21 -5 -22 21 -16 15 4 36
13 47 20 16 11 23 10 45 -6 62 -45 201 -61 318 -36 53 11 74 10 130 -2 100
-21 201 -11 277 27 53 26 64 28 81 17 23 -15 75 -29 75 -21 0 3 -9 23 -20 44
-13 27 -33 46 -63 60 -53 26 -59 26 -55 4 2 -13 -13 -26 -52 -46 -53 -27 -59
-28 -155 -22 -107 7 -132 7 -320 3 -109 -3 -124 -1 -163 20 -34 18 -42 27 -37
42 8 24 1 25 -50 1z m851 -52 c4 -8 0 -8 -15 0 -16 9 -27 9 -43 0 -23 -12 -23
-12 -4 9 19 22 45 18 62 -9z m-818 8 c8 -10 2 -12 -29 -12 -35 0 -38 1 -23 12
10 7 23 13 30 13 6 0 16 -6 22 -13z"/>
<path d="M1360 929 c0 -5 21 -19 46 -31 35 -15 61 -19 103 -16 56 4 131 32
131 49 0 5 -63 9 -140 9 -92 0 -140 -4 -140 -11z"/>
<path d="M821 839 c49 -47 88 -79 96 -79 3 0 20 -11 37 -24 68 -51 272 -137
324 -135 16 0 -1 8 -43 20 -95 27 -255 108 -339 171 -95 73 -117 86 -75 47z"/>
<path d="M2158 833 c-110 -92 -270 -177 -401 -213 -45 -11 -61 -19 -44 -19 37
-1 165 43 242 82 67 35 210 134 239 166 29 32 13 25 -36 -16z"/>
<path d="M341 1536 c2 -2 31 -6 64 -9 39 -4 50 -3 30 2 -31 9 -102 14 -94 7z"/>
<path d="M352 1354 c10 -9 118 -32 118 -24 0 3 -23 12 -51 18 -56 13 -75 15
-67 6z"/>
<path d="M2565 1530 c-27 -7 -28 -8 -5 -8 14 -1 43 3 65 7 l40 9 -35 0 c-19 0
-48 -4 -65 -8z"/>
<path d="M2573 1347 c-24 -5 -43 -13 -43 -17 0 -10 92 9 105 21 11 11 -6 10
-62 -4z"/>
<path d="M2971 2054 c0 -11 3 -14 6 -6 3 7 2 16 -1 19 -3 4 -6 -2 -5 -13z"/>
<path d="M2977 1400 c-4 -14 -11 -54 -17 -90 -14 -97 -49 -243 -60 -254 -6 -6
-10 -21 -10 -35 0 -52 -143 -324 -227 -433 -23 -30 -210 -217 -246 -246 -58
-47 -206 -137 -293 -178 -81 -39 -222 -87 -294 -100 -14 -3 -43 -9 -65 -14
-22 -5 -58 -10 -81 -10 -22 0 -49 -7 -60 -16 -17 -14 -12 -15 66 -10 47 3 137
20 200 37 553 148 979 609 1085 1171 16 86 18 231 2 178z"/>
<path d="M13 1313 c8 -100 55 -284 101 -393 181 -428 551 -751 1001 -871 120
-32 299 -51 279 -29 -7 6 -46 16 -88 21 -78 8 -243 46 -261 59 -5 4 -26 10
-45 14 -48 8 -226 99 -335 170 -121 79 -301 260 -384 386 -97 146 -149 263
-212 476 -5 17 -9 42 -9 55 0 14 -4 29 -9 35 -6 5 -11 39 -12 76 -2 49 -6 69
-17 73 -13 5 -14 -6 -9 -72z"/>
<path d="M2971 934 c0 -11 3 -14 6 -6 3 7 2 16 -1 19 -3 4 -6 -2 -5 -13z"/>
</g>
</svg>
